<?xml version="1.0" encoding="UTF-8"?>
<!DOCTYPE svg PUBLIC "-//W3C//DTD SVG 1.1//EN" "http://www.w3.org/Graphics/SVG/1.1/DTD/svg11.dtd">
<svg xmlns="http://www.w3.org/2000/svg" version="1.1" width="500px" height="500px" style="shape-rendering:geometricPrecision; text-rendering:geometricPrecision; image-rendering:optimizeQuality; fill-rule:evenodd; clip-rule:evenodd" xmlns:xlink="http://www.w3.org/1999/xlink">
<g><path style="opacity:1" fill="#fef7dc" d="M -0.5,-0.5 C 166.167,-0.5 332.833,-0.5 499.5,-0.5C 499.5,166.167 499.5,332.833 499.5,499.5C 332.833,499.5 166.167,499.5 -0.5,499.5C -0.5,332.833 -0.5,166.167 -0.5,-0.5 Z"/></g>
<g><path style="opacity:1" fill="#e2f2d7" d="M 228.5,199.5 C 240.326,198.34 252.326,198.174 264.5,199C 268.385,199.754 272.052,201.088 275.5,203C 277.037,204.11 277.703,205.61 277.5,207.5C 273.593,203.711 268.926,201.211 263.5,200C 251.838,199.5 240.171,199.333 228.5,199.5 Z"/></g>
<g><path style="opacity:1" fill="#196a41" d="M 209.5,193.5 C 219.375,193.529 222.875,198.196 220,207.5C 213.775,213.372 208.442,212.705 204,205.5C 202.873,200.089 204.707,196.089 209.5,193.5 Z"/></g>
<g><path style="opacity:1" fill="#176a40" d="M 176.5,199.5 C 183.255,198.877 189.588,199.544 195.5,201.5C 194.167,220.5 194.167,239.5 195.5,258.5C 195.261,260.467 195.594,262.301 196.5,264C 191.833,264.667 187.167,264.667 182.5,264C 177.296,261.064 175.13,256.564 176,250.5C 173.333,253.833 170.667,257.167 168,260.5C 158.785,267.016 151.452,265.349 146,255.5C 145.077,245.426 145.41,235.426 147,225.5C 150.838,218.664 156.671,214.997 164.5,214.5C 168.5,214.5 172.5,214.5 176.5,214.5C 176.5,209.5 176.5,204.5 176.5,199.5 Z"/></g>
<g><path style="opacity:1" fill="#166a40" d="M 78.5,202.5 C 77.3376,221.996 77.1709,241.662 78,261.5C 78.3826,262.056 78.8826,262.389 79.5,262.5C 76.4018,263.821 72.9018,264.488 69,264.5C 65.5,264.167 62,263.833 58.5,263.5C 59.8333,242.5 59.8333,221.5 58.5,200.5C 65.5,199.167 72.5,199.167 79.5,200.5C 79.1373,201.183 78.8039,201.85 78.5,202.5 Z"/></g>
<g><path style="opacity:1" fill="#c8e1c5" d="M 78.5,202.5 C 78.1905,222.546 78.5238,242.546 79.5,262.5C 78.8826,262.389 78.3826,262.056 78,261.5C 77.1709,241.662 77.3376,221.996 78.5,202.5 Z"/></g>
<g><path style="opacity:1" fill="#176b41" d="M 424.5,199.5 C 430.868,199.17 437.202,199.504 443.5,200.5C 442.2,221.814 442.2,243.148 443.5,264.5C 431.009,267.619 424.343,262.952 423.5,250.5C 419.951,256.216 415.285,260.716 409.5,264C 403.457,265.319 398.624,263.486 395,258.5C 393.408,248.241 393.074,237.907 394,227.5C 397.378,219.966 403.212,215.633 411.5,214.5C 415.833,214.5 420.167,214.5 424.5,214.5C 424.5,209.5 424.5,204.5 424.5,199.5 Z"/></g>
<g><path style="opacity:1" fill="#a7d5b3" d="M 176.5,199.5 C 176.5,204.5 176.5,209.5 176.5,214.5C 172.5,214.5 168.5,214.5 164.5,214.5C 167.962,213.518 171.629,213.185 175.5,213.5C 175.181,208.637 175.514,203.97 176.5,199.5 Z"/></g>
<g><path style="opacity:1" fill="#96c6a1" d="M 424.5,199.5 C 424.5,204.5 424.5,209.5 424.5,214.5C 420.167,214.5 415.833,214.5 411.5,214.5C 415.298,213.517 419.298,213.183 423.5,213.5C 423.181,208.637 423.514,203.97 424.5,199.5 Z"/></g>
<g><path style="opacity:1" fill="#186b41" d="M 88.5,213.5 C 100.991,210.381 107.657,215.048 108.5,227.5C 111.608,222.888 115.275,218.722 119.5,215C 124.652,212.878 129.652,213.211 134.5,216C 136.317,217.8 137.484,219.966 138,222.5C 138.257,236.52 138.757,250.52 139.5,264.5C 135.154,264.666 130.821,264.499 126.5,264C 124.714,263.215 123.214,262.049 122,260.5C 120.71,249.263 120.043,237.93 120,226.5C 119.481,225.484 118.647,224.818 117.5,224.5C 113.921,226.571 110.754,229.238 108,232.5C 107.181,243.077 107.348,253.577 108.5,264C 102.175,264.5 95.8421,264.666 89.5,264.5C 89.8051,247.453 89.4718,230.453 88.5,213.5 Z"/></g>
<g><path style="opacity:1" fill="#156b40" d="M 201.5,213.5 C 206.599,213.175 211.599,213.675 216.5,215C 218.815,216.109 220.315,217.943 221,220.5C 221.175,235.075 221.675,249.575 222.5,264C 216.175,264.5 209.842,264.666 203.5,264.5C 203.667,248.497 203.5,232.497 203,216.5C 201.961,215.756 201.461,214.756 201.5,213.5 Z"/></g>
<g><path style="opacity:1" fill="#186a41" d="M 300.5,210.5 C 331.393,208.272 342.226,222.272 333,252.5C 331.192,256.974 328.026,260.141 323.5,262C 289.689,269.853 276.855,256.687 285,222.5C 288.255,215.964 293.422,211.964 300.5,210.5 Z"/></g>
<g><path style="opacity:1" fill="#f1f3d7" d="M 166.5,219.5 C 170.287,218.814 173.454,219.814 176,222.5C 176.667,230.167 176.667,237.833 176,245.5C 173.286,248.551 170.286,251.218 167,253.5C 165.347,253.18 164.347,252.18 164,250.5C 163.333,241.167 163.333,231.833 164,222.5C 165.045,221.627 165.878,220.627 166.5,219.5 Z"/></g>
<g><path style="opacity:1" fill="#e5fde0" d="M 195.5,201.5 C 195.862,220.462 195.862,239.462 195.5,258.5C 194.167,239.5 194.167,220.5 195.5,201.5 Z"/></g>
<g><path style="opacity:1" fill="#f1f3d7" d="M 304.5,216.5 C 307.518,216.335 310.518,216.502 313.5,217C 314,217.5 314.5,218 315,218.5C 315.667,231.167 315.667,243.833 315,256.5C 310.731,259.383 306.731,259.05 303,255.5C 302.333,243.5 302.333,231.5 303,219.5C 303.513,218.473 304.013,217.473 304.5,216.5 Z"/></g>
<g><path style="opacity:1" fill="#f2f3d7" d="M 414.5,219.5 C 418.192,218.971 421.358,219.971 424,222.5C 424.667,230.167 424.667,237.833 424,245.5C 421.246,248.762 418.079,251.429 414.5,253.5C 413.353,253.182 412.519,252.516 412,251.5C 411.333,241.833 411.333,232.167 412,222.5C 413.045,221.627 413.878,220.627 414.5,219.5 Z"/></g>
<g><path style="opacity:1" fill="#166a41" d="M 228.5,199.5 C 240.171,199.333 251.838,199.5 263.5,200C 268.926,201.211 273.593,203.711 277.5,207.5C 279.344,212.753 278.677,217.587 275.5,222C 270.962,224.303 266.795,223.803 263,220.5C 261.362,215.63 259.862,210.797 258.5,206C 255.312,204.684 251.978,204.184 248.5,204.5C 248.5,213.5 248.5,222.5 248.5,231.5C 250.857,231.663 253.19,231.497 255.5,231C 257.356,226.33 260.19,225.497 264,228.5C 264.667,234.167 264.667,239.833 264,245.5C 262.534,247.325 260.701,247.825 258.5,247C 256.289,243.122 252.955,241.622 248.5,242.5C 248.5,249.833 248.5,257.167 248.5,264.5C 242.5,264.5 236.5,264.5 230.5,264.5C 230.667,243.831 230.5,223.164 230,202.5C 228.961,201.756 228.461,200.756 228.5,199.5 Z"/></g>
<g><path style="opacity:1" fill="#176b41" d="M 354.5,210.5 C 385.36,208.243 396.194,222.243 387,252.5C 382.98,260.269 376.48,264.103 367.5,264C 359.336,265.45 351.669,264.117 344.5,260C 342.622,258.457 341.122,256.624 340,254.5C 338.405,243.907 338.072,233.24 339,222.5C 342.255,215.964 347.422,211.964 354.5,210.5 Z"/></g>
<g><path style="opacity:1" fill="#f3f3d7" d="M 358.5,216.5 C 361.518,216.335 364.518,216.502 367.5,217C 368,217.5 368.5,218 369,218.5C 369.667,231.167 369.667,243.833 369,256.5C 366.159,258.504 362.993,259.004 359.5,258C 358.333,257.5 357.5,256.667 357,255.5C 356.333,243.5 356.333,231.5 357,219.5C 357.513,218.473 358.013,217.473 358.5,216.5 Z"/></g>
</svg>
